<?xml version="1.0" encoding="utf-8"?>
<!DOCTYPE svg PUBLIC "-//W3C//DTD SVG 1.1//EN" "http://www.w3.org/Graphics/SVG/1.1/DTD/svg11.dtd">
<svg version="1.1" xmlns="http://www.w3.org/2000/svg" xmlns:xlink="http://www.w3.org/1999/xlink">

  <symbol id="like" viewBox="0 0 51.997 51.997">
    <path xmlns="http://www.w3.org/2000/svg"
          d="M51.911,16.242C51.152,7.888,45.239,1.827,37.839,1.827c-4.93,0-9.444,2.653-11.984,6.905  c-2.517-4.307-6.846-6.906-11.697-6.906c-7.399,0-13.313,6.061-14.071,14.415c-0.06,0.369-0.306,2.311,0.442,5.478  c1.078,4.568,3.568,8.723,7.199,12.013l18.115,16.439l18.426-16.438c3.631-3.291,6.121-7.445,7.199-12.014  C52.216,18.553,51.97,16.611,51.911,16.242z"
    />
  </symbol>
  <symbol id="chat" viewBox="0 0 58 58">
    <path d="M53,3.293H5c-2.722,0-5,2.278-5,5v33c0,2.722,2.278,5,5,5h27.681l-4.439-5.161
		c-0.36-0.418-0.313-1.05,0.106-1.41c0.419-0.36,1.051-0.312,1.411,0.106l4.998,5.811L43,54.707v-8.414h2h6h2c2.722,0,5-2.278,5-5
		v-33C58,5.571,55.722,3.293,53,3.293z"/>
  </symbol>

</svg>